<?xml version="1.0" encoding="utf-8"?>
<!-- Generator: Adobe Illustrator 26.0.3, SVG Export Plug-In . SVG Version: 6.00 Build 0)  -->
<svg version="1.1" id="Layer_1" xmlns="http://www.w3.org/2000/svg" xmlns:xlink="http://www.w3.org/1999/xlink" x="0px" y="0px"
	 width="45.5px" height="16px" viewBox="0 0 45.5 16" style="enable-background:new 0 0 45.5 16;" xml:space="preserve">
<g>
	<path d="M44.328,1L30.429,15H20.5v0L34.398,1H44.328 M45.5,0H33.982L19.5,14.587V16h11.346L45.5,1.239V0L45.5,0z"/>
</g>
<g>
	<path d="M5.5,1v0.055L1,5.685L1,1H5.5 M6.5,0H0l0,8h0.144L6.5,1.461V0L6.5,0z"/>
</g>
<g>
	<path d="M24.828,1L10.929,15H1v0L14.898,1H24.828 M26,0H14.482L0,14.587V16h11.346L26,1.239V0L26,0z"/>
</g>
</svg>
