<?xml version="1.0" encoding="utf-8"?>
<!-- Generator: Adobe Illustrator 26.0.3, SVG Export Plug-In . SVG Version: 6.00 Build 0)  -->
<svg version="1.1" id="Layer_2" xmlns="http://www.w3.org/2000/svg" xmlns:xlink="http://www.w3.org/1999/xlink" x="0px" y="0px"
	 width="51px" height="22px" viewBox="0 0 51 22" style="enable-background:new 0 0 51 22;" xml:space="preserve">
<style type="text/css">
	.st0{fill:#010101;}
</style>
<g>
	<path class="st0" d="M50,1v2.71l-0.773,0.771l-2.196-0.1l-0.44-0.02l-0.312,0.311L29.911,21h-5.438L44.522,1H50 M38.244,1
		L18.195,21h-5.438L32.805,1H38.244 M26.528,1L6.478,21H1v-2.71l0.792-0.79h2.343h0.413l0.293-0.292L21.089,1H26.528 M5.169,1
		c2.299,0,4.169,1.865,4.169,4.156c0,2.292-1.87,4.156-4.169,4.156C2.87,9.313,1,7.448,1,5.156C1,2.865,2.87,1,5.169,1 M51,0h-6.892
		L23.432,20.625V22h6.892L46.985,5.38l2.636,0.12L51,4.125V0L51,0z M39.284,0h-6.892L11.716,20.625V22h6.892L39.284,1.375V0
		L39.284,0z M27.568,0h-6.892L4.135,16.5H1.378L0,17.875V22h6.892L27.568,1.375V0L27.568,0z M5.169,0C2.316,0,0,2.31,0,5.156
		c0,2.846,2.316,5.156,5.169,5.156c2.853,0,5.169-2.31,5.169-5.156C10.338,2.31,8.022,0,5.169,0L5.169,0z"/>
</g>
</svg>
