<?xml version="1.0" encoding="utf-8"?>
<!-- Generator: Adobe Illustrator 25.4.1, SVG Export Plug-In . SVG Version: 6.00 Build 0)  -->
<svg version="1.1" id="Layer_1" xmlns="http://www.w3.org/2000/svg" xmlns:xlink="http://www.w3.org/1999/xlink" x="0px" y="0px"
	 width="8.5px" height="8.5px" viewBox="0 0 8.5 8.5" style="enable-background:new 0 0 8.5 8.5;" xml:space="preserve">
<style type="text/css">
	.st0{fill:none;stroke:#E4E5EA;stroke-width:0.5;stroke-miterlimit:1.5;}
	.st1{fill:none;stroke:#CFD2DB;stroke-width:0.32;stroke-miterlimit:1.5;stroke-dasharray:1.6,0.6,0,0;}
	.st2{fill:#FFFFFF;}
</style>
<path id="outer_ring" class="st0" d="M4.25,0.25c2.21,0,4,1.79,4,4c0,2.21-1.79,4-4,4c-2.21,0-4-1.79-4-4
	C0.25,2.04,2.04,0.25,4.25,0.25L4.25,0.25z"/>
<path id="inner_ring" class="st1" d="M4.25,1.48c1.53,0,2.77,1.24,2.77,2.77S5.78,7.02,4.25,7.02c-1.53,0-2.77-1.24-2.77-2.77
	S2.72,1.48,4.25,1.48L4.25,1.48z"/>
<path id="center_ring" class="st2" d="M4.25,2.1c1.19,0,2.15,0.97,2.15,2.15c0,1.19-0.97,2.15-2.15,2.15C3.06,6.4,2.1,5.44,2.1,4.25
	C2.1,3.06,3.06,2.1,4.25,2.1L4.25,2.1z"/>
</svg>
