<?xml version="1.0" encoding="utf-8"?>
<!-- Generator: Adobe Illustrator 26.0.3, SVG Export Plug-In . SVG Version: 6.00 Build 0)  -->
<svg version="1.1" id="Layer_1" xmlns="http://www.w3.org/2000/svg" xmlns:xlink="http://www.w3.org/1999/xlink" x="0px" y="0px"
	 width="37px" height="64px" viewBox="0 0 37 64" style="enable-background:new 0 0 37 64;" xml:space="preserve">
<style type="text/css">
	.st0{fill-rule:evenodd;clip-rule:evenodd;fill:#010101;}
	.st1{fill-rule:evenodd;clip-rule:evenodd;fill:#FFFFFF;}
	.st2{fill-rule:evenodd;clip-rule:evenodd;fill:none;stroke:#010101;stroke-miterlimit:10;}
</style>
<path id="eye-closed" class="st0" d="M30.925,11.035v18.758h-1.657V4.414h-6.073v25.379h-1.657V0h-6.075v29.793h-1.657V3.31H7.732
	v35.863H6.075v-19.31H0v25.654C0,55.718,8.289,64,18.5,64S37,55.718,37,45.517V11.035H30.925z"/>
<g>
	<path class="st1" d="M26.437,49.212c0,0,0.063-0.529,0.063-1.016c0-0.487-0.063-1.015-0.063-1.015l-2.045-0.58
		c-0.138-0.511-0.339-0.996-0.597-1.445l1.035-1.854c0,0-0.329-0.418-0.674-0.763c-0.344-0.344-0.763-0.674-0.763-0.674
		l-1.854,1.035c-0.449-0.258-0.934-0.459-1.445-0.597l-0.579-2.045c0,0-0.529-0.063-1.016-0.063c-0.487,0-1.016,0.063-1.016,0.063
		l-0.58,2.045c-0.511,0.138-0.996,0.339-1.445,0.597l-1.854-1.035c0,0-0.418,0.329-0.763,0.674s-0.674,0.763-0.674,0.763
		l1.035,1.854c-0.258,0.449-0.459,0.934-0.597,1.445l-2.045,0.579c0,0-0.063,0.529-0.063,1.016c0,0.487,0.063,1.016,0.063,1.016
		l2.045,0.579c0.138,0.511,0.339,0.996,0.597,1.445l-1.035,1.854c0,0,0.329,0.418,0.674,0.763s0.763,0.674,0.763,0.674l1.854-1.035
		c0.449,0.258,0.933,0.459,1.445,0.597l0.58,2.045c0,0,0.529,0.063,1.016,0.063c0.487,0,1.016-0.063,1.016-0.063l0.58-2.045
		c0.511-0.138,0.996-0.339,1.445-0.597l1.854,1.035c0,0,0.418-0.329,0.763-0.674c0.344-0.344,0.674-0.763,0.674-0.763l-1.035-1.854
		c0.258-0.449,0.459-0.934,0.597-1.445L26.437,49.212z"/>
	<circle class="st2" cx="18.5" cy="48.197" r="4"/>
	<circle class="st2" cx="18.5" cy="48.197" r="2.5"/>
</g>
</svg>
