<?xml version="1.0" encoding="utf-8"?>
<!-- Generator: Adobe Illustrator 25.4.1, SVG Export Plug-In . SVG Version: 6.00 Build 0)  -->
<svg version="1.1" id="Layer_1" xmlns="http://www.w3.org/2000/svg" xmlns:xlink="http://www.w3.org/1999/xlink" x="0px" y="0px"
	 width="279.84px" height="143.51px" viewBox="0 0 279.84 143.51" style="enable-background:new 0 0 279.84 143.51;"
	 xml:space="preserve">
<style type="text/css">
	.st0{fill-rule:evenodd;clip-rule:evenodd;fill:#010101;}
</style>
<path class="st0" d="M83.16,90.34l34,34l-7.69,7.69l-34-34L83.16,90.34L83.16,90.34z M94.48,79.02L128.5,113l-7.71,7.71l-34-34
	L94.48,79.02L94.48,79.02z M98.12,75.38l36.27-36.27h6.63l2.57,6.19l-30.07,30.07l26.45,26.45l-2.57,6.19h-6.63L98.12,75.38
	L98.12,75.38z M45.54,75.38L12.9,108.02H6.27l-2.57-6.19l26.45-26.45L0.08,45.31l2.57-6.19h6.63L45.54,75.38L45.54,75.38z
	 M35.56,143.51v-5.57l36.27-36.27l0,0l36.27,36.27v5.57l-9.82,0l-26.45-26.45l-26.45,26.45L35.56,143.51z M68.19,98.03l-34,34
	l-7.69-7.69l34-34L68.19,98.03L68.19,98.03z M56.87,86.71l-34,34l-7.69-7.7l34-34L56.87,86.71L56.87,86.71z M71.83,71.75L26.5,26.42
	l7.69-7.7l37.64,37.64l37.73-37.55l7.6,7.6L71.83,71.75L71.83,71.75z M71.83,49.09L35.56,12.82V6.19l6.19-2.57L71.83,33.7
	L101.9,3.63l6.19,2.57v6.63L71.83,49.09L71.83,49.09z M72.23,93.99l-40.3-39.37L15.07,37.85l7.8-7.8l48.96,48.96l48.96-48.96
	l7.69,7.69L72.23,93.99L72.23,93.99z"/>
<path class="st0" d="M200.38,56.79l-34-34l7.69-7.69l34,34L200.38,56.79L200.38,56.79z M189.06,68.12l-34.01-33.98l7.71-7.71l34,34
	L189.06,68.12L189.06,68.12z M185.42,71.75l-36.27,36.27h-6.63l-2.57-6.19l30.07-30.07l-26.45-26.45l2.57-6.19h6.63L185.42,71.75
	L185.42,71.75z M279.84,108.02h-5.57L238,71.75l0,0l32.64-32.64h6.63l2.57,6.19l-26.45,26.45l26.45,26.45V108.02z M211.71,45.46
	L175.44,9.2V2.57L181.64,0l30.07,30.07L241.78,0l6.19,2.57V9.2L211.71,45.46L211.71,45.46z M215.35,49.1l34-34l7.69,7.69l-34,34
	L215.35,49.1L215.35,49.1z M226.67,60.42l34-34l7.69,7.7l-34,34L226.67,60.42L226.67,60.42z M211.71,75.38l45.33,45.33l-7.69,7.7
	l-37.64-37.64l-37.73,37.55l-7.6-7.6L211.71,75.38L211.71,75.38z M211.71,98.05l36.27,36.27v6.63l-6.19,2.57l-30.07-30.07
	l-30.07,30.07l-6.19-2.57v-6.63L211.71,98.05L211.71,98.05z M211.31,53.14l40.3,39.37l16.87,16.77l-7.8,7.8l-48.96-48.96
	l-48.96,48.96l-7.69-7.69L211.31,53.14L211.31,53.14z"/>
<polygon class="st0" points="108.1,0 108.1,1.06 101.9,3.63 98.28,0 "/>
<polygon class="st0" points="45.38,0 41.76,3.63 35.56,1.06 35.56,0 "/>
<polygon class="st0" points="0.08,98.2 3.7,101.83 1.14,108.02 0.08,108.02 "/>
</svg>
