<?xml version="1.0" encoding="utf-8"?>
<!-- Generator: Adobe Illustrator 25.4.1, SVG Export Plug-In . SVG Version: 6.00 Build 0)  -->
<svg version="1.0" id="Layer_1" xmlns="http://www.w3.org/2000/svg" xmlns:xlink="http://www.w3.org/1999/xlink" x="0px" y="0px"
	 width="32.59px" height="32.59px" viewBox="0 0 32.59 32.59" enable-background="new 0 0 32.59 32.59" xml:space="preserve">
<path fill-rule="evenodd" clip-rule="evenodd" fill="#010101" d="M16.3,0c1.97,0,3.56,1.6,3.56,3.56c0,1.97-1.6,3.57-3.56,3.57
	c-1.97,0-3.56-1.6-3.56-3.57C12.73,1.6,14.33,0,16.3,0L16.3,0z M16.3,25.46c1.97,0,3.56,1.6,3.56,3.56c0,1.97-1.6,3.56-3.56,3.56
	c-1.97,0-3.56-1.6-3.56-3.56C12.73,27.06,14.33,25.46,16.3,25.46L16.3,25.46z M29.03,12.73c1.97,0,3.56,1.6,3.56,3.56
	c0,1.97-1.6,3.56-3.56,3.56c-1.97,0-3.56-1.6-3.56-3.56C25.46,14.33,27.06,12.73,29.03,12.73L29.03,12.73z M3.56,12.73
	c1.97,0,3.56,1.6,3.56,3.56c0,1.97-1.6,3.56-3.56,3.56S0,18.26,0,16.3C0,14.33,1.6,12.73,3.56,12.73L3.56,12.73z M10.19,4.85
	l6.84,6.84v-1.45l5.39-5.39V0h2.04l1.02,1.02v5.09l-9.17,9.17L7.13,6.11V1.02L8.15,0h2.04V4.85L10.19,4.85z M8.15,32.59l-1.02-1.02
	v-5.09l9.17-9.17l9.17,9.17v5.09l-1.02,1.02h-2.04v-4.85l-6.84-6.84v1.45l-5.39,5.39v4.85H8.15L8.15,32.59z M32.59,24.45l-1.02,1.02
	h-5.09l-9.17-9.17l9.17-9.17h5.09l1.02,1.02v2.04h-4.85l-6.84,6.84h1.45l5.39,5.39h4.85V24.45L32.59,24.45z M6.11,7.13l9.17,9.17
	l-9.17,9.17H1.02L0,24.45v-2.04h4.85l6.84-6.84h-1.45l-5.39-5.39H0V8.15l1.02-1.02H6.11L6.11,7.13z M0,1.02L1.02,0h4.07L0,5.09V1.02
	L0,1.02z M32.59,1.02v4.07L27.5,0h4.07L32.59,1.02L32.59,1.02z M0,31.57V27.5l5.09,5.09H1.02L0,31.57L0,31.57z M32.59,31.57
	l-1.02,1.02H27.5l5.09-5.09V31.57L32.59,31.57z"/>
</svg>
