<svg id="Layer_1" data-name="Layer 1" xmlns="http://www.w3.org/2000/svg" viewBox="0 0 96 96"><path d="M51.955,67.14,67.583,51.512l.932.933V61.77L53.6,76.691H42.4L27.483,61.77V52.445l.933-.933L44.043,67.139v-6.3H41.472L27.483,46.849V37.524l.933-.933L44.043,52.218v-31.8L45.362,19.1h5.275l1.319,1.319v31.8L67.583,36.592l.932.932v9.325L54.527,60.838H51.955v6.3Z" transform="translate(0)" style="fill-rule:evenodd"/><path d="M0,30.857V8.579L8.579,0h71.7L96,15.721v71.7L87.421,96H8.579L0,87.422V30.857ZM82.286,21.4l-7.69-7.69H17.832l-4.118,4.118V78.168l4.118,4.118H78.168l4.118-4.118V21.4Z" transform="translate(0)" style="fill-rule:evenodd"/></svg>